<?xml version="1.0" standalone="no"?><!DOCTYPE svg PUBLIC "-//W3C//DTD SVG 1.1//EN" "http://www.w3.org/Graphics/SVG/1.1/DTD/svg11.dtd"><svg class="icon" width="200px" height="200.00px" viewBox="0 0 1024 1024" version="1.1" xmlns="http://www.w3.org/2000/svg"><path fill="#FF5E00" d="M400.74430055 817.49491157c-39.20681394-84.70199376-18.33045843-133.32862609 11.7111263-179.07839567 32.84207156-49.95049923 41.49812124-99.62095027 41.49812124-99.62094966s25.76447796 35.05700176 15.58088967 89.81924634c45.54609728-53.13287043 54.227606-137.32568465 47.37914372-169.81133031 103.31250039 75.20579766 147.38197775 238.04137049 87.75706975 358.69142929 316.45499838-186.46149711 78.71913572-465.44089123 37.42468619-497.01001395 13.72238478 31.56912274 16.26828186 84.77837026-11.45653653 110.51738917C583.53970598 244.76992042 466.93762321 206.4796294 466.93762321 206.4796294c13.69692576 96.13307123-50.15417093 201.07494578-111.53574825 279.71770438-2.2913073-38.2139139-4.58261461-64.79307865-23.93143211-101.45399551-4.30256581 69.57936555-55.50055484 126.48016321-69.22293963 196.03406972-18.5850482 94.60553263 14.00243359 163.67571864 138.49679733 236.71750357z"  /></svg>