<?xml version="1.0" standalone="no"?><!DOCTYPE svg PUBLIC "-//W3C//DTD SVG 1.1//EN" "http://www.w3.org/Graphics/SVG/1.1/DTD/svg11.dtd"><svg class="icon" width="200px" height="200.00px" viewBox="0 0 1024 1024" version="1.1" xmlns="http://www.w3.org/2000/svg"><path fill="#FF5E00" d="M653.55 729.77c0 12.2-10.32 22-23.12 22H422.82V290.3c0-13.88-7.6-34.77-32.35-46.6-13.89-6.64-198.49-94-198.49-94h438.45c12.8 0 23.12 9.77 23.12 21.85v197.11h57.65V127.55c0-18.23-15.52-32.84-34.65-32.84H111.33c-19.14 0-34.65 14.73-34.65 32.84v645.93c0 12.68 7.6 23.66 18.71 29.22 0.12 0 0.12 0.12 0.3 0.12 15.21 7.61 224.21 116.27 301 154.66 16.24 8.09 26.13-0.84 26.13-9.66V806.44h253.85c19.19 0 34.71-14.73 34.71-33V587.43h-57.83zM942.1 477.92L769 313.72v109.51H480.66v109.51H769v109.39z m0 0" /></svg>