<?xml version="1.0" standalone="no"?><!DOCTYPE svg PUBLIC "-//W3C//DTD SVG 1.1//EN" "http://www.w3.org/Graphics/SVG/1.1/DTD/svg11.dtd"><svg class="icon" width="200px" height="200.00px" viewBox="0 0 1024 1024" version="1.1" xmlns="http://www.w3.org/2000/svg"><path fill="#FF5E00" d="M501.317829 16.47049c141.20372 0 255.664197 112.592887 255.664197 251.466153 0 138.899485-114.460477 251.498422-255.664197 251.498422-141.199686 0-255.658146-112.597929-255.658146-251.498422C245.659683 129.031107 360.157471 16.47049 501.317829 16.47049L501.317829 16.47049 501.317829 16.47049zM501.317829 16.47049c141.20372 0 255.664197 112.592887 255.664197 251.466153 0 138.899485-114.460477 251.498422-255.664197 251.498422-141.199686 0-255.658146-112.597929-255.658146-251.498422C245.659683 129.031107 360.157471 16.47049 501.317829 16.47049L501.317829 16.47049 501.317829 16.47049zM405.452579 603.280982l213.094842 0c182.399609 0 330.243761 145.39773 330.243761 324.824523l0 20.926689c0 70.70724-147.876422 73.394674-330.243761 73.394674L405.452579 1022.426868c-182.404651 0-330.243761-0.103867-330.243761-73.394674l0-20.926689C75.208817 748.678713 223.046919 603.280982 405.452579 603.280982L405.452579 603.280982 405.452579 603.280982zM405.452579 603.280982"  /></svg>