<?xml version="1.0" standalone="no"?><!DOCTYPE svg PUBLIC "-//W3C//DTD SVG 1.1//EN" "http://www.w3.org/Graphics/SVG/1.1/DTD/svg11.dtd"><svg class="icon" width="200px" height="200.00px" viewBox="0 0 1024 1024" version="1.1" xmlns="http://www.w3.org/2000/svg"><path fill="#FF5E00" d="M512 608.553c-106.65 0-193.096-86.456-193.096-193.106 0-106.64 86.446-193.096 193.096-193.096s193.096 86.457 193.096 193.096c0 106.65-86.446 193.106-193.096 193.106z m0-64.369c71.096 0 128.727-57.64 128.727-128.737S583.097 286.72 512 286.72s-128.727 57.63-128.727 128.727S440.903 544.184 512 544.184zM193.782 775.066C251.32 657.408 372.193 576.379 512 576.379c140.001 0 261.018 81.265 318.464 199.199l-45.599 57.426C744.868 720.937 637.798 640.727 512 640.727c-123.679 0-229.253 77.517-270.787 186.624l-47.431-52.275zM512 962.56C263.168 962.56 61.44 760.832 61.44 512S263.168 61.44 512 61.44 962.56 263.168 962.56 512 760.832 962.56 512 962.56z m0-64.369c213.289 0 386.191-172.902 386.191-386.191S725.29 125.809 512 125.809 125.809 298.71 125.809 512 298.71 898.191 512 898.191z" /></svg>